<?xml version="1.0" ?><svg style="enable-background:new 0 0 78.748 81.343;" version="1.1" viewBox="0 0 78.748 81.343" xml:space="preserve" xmlns="http://www.w3.org/2000/svg" xmlns:xlink="http://www.w3.org/1999/xlink"><g id="airplane"><path d="M21.909,68.561L7.376,65.613l3.932-5.513l11.666,0.454l19.441-29.146L0,21.536l5.243-7.35l47.013,2.061l3.387-4.853   c2.031-2.847,4.238-5.17,6.619-6.969l3.31-2.435c2.471-1.784,4.138-2.369,4.999-1.755c0.927,0.662,0.95,2.451,0.067,5.368   l-1.224,3.923c-0.925,2.838-2.438,5.73-4.54,8.676l-3.429,4.598l17.304,43.816l-5.243,7.351l-23.143-36.89l-21.229,27.87   L33.36,75.83l-3.932,5.513L21.909,68.561z"/></g><g id="Слой_1"/></svg>